<svg width="166" height="191" viewBox="0 0 166 191" fill="none" xmlns="http://www.w3.org/2000/svg">
<path d="M51.5 0C55.0899 0 58 2.91015 58 6.5V25H112V6.5C112 2.91015 114.91 7.24788e-08 118.5 0H133.5C137.09 0 140 2.91015 140 6.5V25H149.5C158.613 25 166 32.3873 166 41.5V174.5C166 183.613 158.613 191 149.5 191H16.5C7.3873 191 0 183.613 0 174.5V41.5C0 32.3873 7.3873 25 16.5 25H30V6.5C30 2.91015 32.9102 7.24788e-08 36.5 0H51.5ZM7 174.5C7 179.747 11.2533 184 16.5 184H149.5C154.747 184 159 179.747 159 174.5V73H7V174.5ZM79.3594 84.915C81.1615 80.1165 88.0842 80.1936 89.7217 85.1465L97.708 109.308H123.956C129.383 109.308 131.53 116.334 127.031 119.368L105.932 133.594L114.127 157.469C115.863 162.527 110.088 166.838 105.732 163.734L84.5 148.604L63.2676 163.734C58.9118 166.838 53.1367 162.527 54.873 157.469L63.0674 133.594L41.9688 119.368C37.4692 116.334 39.6171 109.308 45.0439 109.308H71.292L79.2783 85.1465L79.3594 84.915ZM77.5986 112.534C76.854 114.787 74.7482 116.307 72.376 116.308H49.9512L67.9355 128.433C69.998 129.823 70.87 132.426 70.0625 134.779L63.0107 155.32L81.3086 142.284L81.4893 142.16C83.3169 140.964 85.6831 140.964 87.5107 142.16L87.6914 142.284L105.988 155.32L98.9375 134.779C98.1299 132.426 99.0018 129.823 101.064 128.433L119.049 116.308H96.624C94.2516 116.308 92.146 114.787 91.4014 112.534L84.5 91.6514L77.5986 112.534ZM16.5 32C11.2533 32 7 36.2533 7 41.5V66H159V41.5C159 36.2533 154.747 32 149.5 32H140V37.5C140 40.5376 137.538 43 134.5 43H117.5C114.462 43 112 40.5376 112 37.5V32H58V37.5C58 40.5376 55.5376 43 52.5 43H35.5C32.4624 43 30 40.5376 30 37.5V32H16.5ZM37 36H51V7H37V36ZM119 36H133V7H119V36Z" fill="white"/>
</svg>
