<svg width="207" height="188" viewBox="0 0 207 188" fill="none" xmlns="http://www.w3.org/2000/svg">
<path d="M148 2C153.523 2 158 6.47715 158 12V176C158 181.523 153.523 186 148 186H146C140.477 186 136 181.523 136 176V175.044L67.29 127H66.2529L76.8848 166.911C78.9138 174.528 73.1719 182 65.2891 182H51.4033C45.5012 182 40.4749 177.708 39.5508 171.879L32.4248 126.918C25.1992 126.164 19.5004 120.281 19.0322 112.974C9.69448 112.479 2.24423 104.868 2.00586 95.4648L2 95V86C2 76.3509 9.59233 68.4749 19.1289 68.0205C20.0977 60.6718 26.3867 55 34 55H68V55.1816L136.007 11.7021C136.164 6.31711 140.577 2 146 2H148ZM146 8C143.791 8 142 9.79086 142 12V176C142 178.209 143.791 180 146 180H148C150.209 180 152 178.209 152 176V12C152 9.79086 150.209 8 148 8H146ZM45.4766 170.939C45.9386 173.854 48.4523 176 51.4033 176H65.2891C69.2304 176 72.1015 172.264 71.0869 168.455L60.0439 127H38.5127L45.4766 170.939ZM69.7275 61.1992V121.383L134.978 167.008V19.4824L69.7275 61.1992ZM172.18 141.404C172.563 139.792 174.179 138.797 175.791 139.18L199.879 144.901C201.491 145.284 202.487 146.902 202.104 148.514C201.721 150.125 200.105 151.121 198.493 150.738L174.404 145.016C172.792 144.633 171.797 143.016 172.18 141.404ZM34 61C29.0294 61 25 65.0294 25 70V112C25 116.971 29.0294 121 34 121H62V61H34ZM19 74.041C12.8405 74.5492 8 79.7093 8 86V95L8.00391 95.3096C8.15963 101.459 12.9418 106.458 19 106.958V74.041ZM202.143 89.459C203.799 89.4591 205.143 90.8022 205.143 92.459C205.143 94.1158 203.799 95.4589 202.143 95.459H176.143C174.486 95.459 173.143 94.1158 173.143 92.459C173.143 90.8021 174.486 89.459 176.143 89.459H202.143ZM54.1113 78.25C55.7067 78.2501 57 79.5932 57 81.25C57 82.9068 55.7067 84.2499 54.1113 84.25H33.8887C32.2933 84.2499 31 82.9068 31 81.25C31 79.5932 32.2933 78.2501 33.8887 78.25H54.1113ZM54.1113 67.25C55.7067 67.2501 57 68.5932 57 70.25C57 71.9068 55.7067 73.2499 54.1113 73.25H33.8887C32.2933 73.2499 31 71.9068 31 70.25C31 68.5932 32.2933 67.2501 33.8887 67.25H54.1113ZM198.494 37.1797C200.106 36.7968 201.723 37.7924 202.105 39.4043C202.488 41.0162 201.493 42.6325 199.881 43.0156L175.792 48.7383C174.18 49.1212 172.564 48.1254 172.181 46.5137C171.798 44.9017 172.793 43.2844 174.405 42.9014L198.494 37.1797Z" fill="white"/>
<path d="M136 175.044H137.5V174.262L136.86 173.815L136 175.044ZM67.29 127L68.1496 125.771L67.7624 125.5H67.29V127ZM66.2529 127V125.5H64.301L64.8035 127.386L66.2529 127ZM76.8848 166.911L78.3342 166.525L78.3342 166.525L76.8848 166.911ZM65.2891 182L65.2891 183.5L65.2891 183.5L65.2891 182ZM39.5508 171.879L38.0693 172.114L38.0693 172.114L39.5508 171.879ZM32.4248 126.918L33.9063 126.683L33.726 125.546L32.5805 125.426L32.4248 126.918ZM19.0322 112.974L20.5292 112.878L20.4439 111.546L19.1116 111.476L19.0322 112.974ZM2.00586 95.4648L0.505979 95.4837L0.506099 95.4933L0.506341 95.5029L2.00586 95.4648ZM2 95H0.5V95.0095L0.500119 95.0189L2 95ZM19.1289 68.0205L19.2003 69.5188L20.4522 69.4592L20.616 68.2166L19.1289 68.0205ZM34 55L34 53.5H34L34 55ZM68 55H69.5V53.5H68V55ZM68 55.1816H66.5V57.921L68.808 56.4454L68 55.1816ZM136.007 11.7021L136.815 12.9659L137.483 12.5387L137.506 11.746L136.007 11.7021ZM45.4766 170.939L43.9951 171.174L43.9951 171.174L45.4766 170.939ZM65.2891 176L65.2891 177.5L65.2892 177.5L65.2891 176ZM71.0869 168.455L69.6375 168.841L69.6375 168.841L71.0869 168.455ZM60.0439 127L61.4934 126.614L61.1967 125.5H60.0439V127ZM38.5127 127V125.5H36.7562L37.0312 127.235L38.5127 127ZM69.7275 61.1992L68.9196 59.9354L68.2275 60.3779V61.1992H69.7275ZM69.7275 121.383H68.2275V122.164L68.868 122.612L69.7275 121.383ZM134.978 167.008L134.118 168.237L136.478 169.887V167.008H134.978ZM134.978 19.4824H136.478V16.7431L134.17 18.2186L134.978 19.4824ZM172.18 141.404L170.72 141.058L170.72 141.058L172.18 141.404ZM175.791 139.18L175.444 140.639L175.444 140.639L175.791 139.18ZM199.879 144.901L200.226 143.442L200.226 143.442L199.879 144.901ZM202.104 148.514L203.564 148.861L203.564 148.86L202.104 148.514ZM198.493 150.738L198.146 152.198L198.147 152.198L198.493 150.738ZM174.404 145.016L174.058 146.475L174.058 146.475L174.404 145.016ZM34 61L34 59.5L34 59.5L34 61ZM25 70L23.5 70V70H25ZM25 112L23.5 112L23.5 112L25 112ZM34 121L34 122.5H34V121ZM62 121V122.5H63.5V121H62ZM62 61H63.5V59.5H62V61ZM19 74.041H20.5V72.4122L18.8767 72.5461L19 74.041ZM8 95H6.5V95.0095L6.50012 95.0189L8 95ZM8.00391 95.3096L6.50403 95.3285L6.50415 95.338L6.50439 95.3475L8.00391 95.3096ZM19 106.958L18.8767 108.453L20.5 108.587V106.958H19ZM202.143 89.459L202.143 87.959H202.143V89.459ZM202.143 95.459L202.143 96.959L202.143 96.959L202.143 95.459ZM54.1113 78.25L54.1114 76.75H54.1113V78.25ZM54.1113 84.25L54.1113 85.75L54.1114 85.75L54.1113 84.25ZM33.8887 84.25L33.8886 85.75H33.8887V84.25ZM33.8887 78.25L33.8887 76.75L33.8886 76.75L33.8887 78.25ZM54.1113 67.25L54.1114 65.75H54.1113V67.25ZM54.1113 73.25L54.1113 74.75L54.1114 74.75L54.1113 73.25ZM33.8887 73.25L33.8886 74.75H33.8887V73.25ZM33.8887 67.25L33.8887 65.75L33.8886 65.75L33.8887 67.25ZM198.494 37.1797L198.148 35.7203L198.147 35.7203L198.494 37.1797ZM202.105 39.4043L203.565 39.0576L203.565 39.0576L202.105 39.4043ZM199.881 43.0156L200.228 44.475L200.228 44.475L199.881 43.0156ZM175.792 48.7383L176.139 50.1977L176.139 50.1977L175.792 48.7383ZM172.181 46.5137L170.721 46.8604L170.721 46.8606L172.181 46.5137ZM174.405 42.9014L174.059 41.442L174.059 41.442L174.405 42.9014ZM148 2V3.5C152.694 3.5 156.5 7.30558 156.5 12H158H159.5C159.5 5.64873 154.351 0.5 148 0.5V2ZM158 12H156.5V176H158H159.5V12H158ZM158 176H156.5C156.5 180.694 152.694 184.5 148 184.5V186V187.5C154.351 187.5 159.5 182.351 159.5 176H158ZM148 186V184.5H146V186V187.5H148V186ZM146 186V184.5C141.306 184.5 137.5 180.694 137.5 176H136H134.5C134.5 182.351 139.649 187.5 146 187.5V186ZM136 176H137.5V175.044H136H134.5V176H136ZM136 175.044L136.86 173.815L68.1496 125.771L67.29 127L66.4305 128.229L135.14 176.273L136 175.044ZM67.29 127V125.5H66.2529V127V128.5H67.29V127ZM66.2529 127L64.8035 127.386L75.4353 167.297L76.8848 166.911L78.3342 166.525L67.7024 126.614L66.2529 127ZM76.8848 166.911L75.4353 167.297C77.2107 173.962 72.1865 180.5 65.289 180.5L65.2891 182L65.2891 183.5C74.1572 183.5 80.6169 175.095 78.3342 166.525L76.8848 166.911ZM65.2891 182V180.5H51.4033V182V183.5H65.2891V182ZM51.4033 182V180.5C46.2389 180.5 41.8409 176.745 41.0323 171.644L39.5508 171.879L38.0693 172.114C39.1089 178.672 44.7636 183.5 51.4033 183.5V182ZM39.5508 171.879L41.0323 171.644L33.9063 126.683L32.4248 126.918L30.9433 127.153L38.0693 172.114L39.5508 171.879ZM32.4248 126.918L32.5805 125.426C26.0798 124.748 20.9504 119.452 20.5292 112.878L19.0322 112.974L17.5353 113.07C18.0504 121.109 24.3187 127.58 32.2691 128.41L32.4248 126.918ZM19.0322 112.974L19.1116 111.476C10.5534 111.022 3.72385 104.045 3.50538 95.4268L2.00586 95.4648L0.506341 95.5029C0.764612 105.691 8.83556 113.936 18.9529 114.472L19.0322 112.974ZM2.00586 95.4648L3.50574 95.4459L3.49988 94.9811L2 95L0.500119 95.0189L0.505979 95.4837L2.00586 95.4648ZM2 95H3.5V86H2H0.5V95H2ZM2 86H3.5C3.5 77.1554 10.4597 69.9353 19.2003 69.5188L19.1289 68.0205L19.0575 66.5222C8.725 67.0145 0.5 75.5464 0.5 86H2ZM19.1289 68.0205L20.616 68.2166C21.4877 61.6043 27.1492 56.5 34 56.5L34 55L34 53.5C25.6243 53.5 18.7076 59.7393 17.6418 67.8245L19.1289 68.0205ZM34 55V56.5H68V55V53.5H34V55ZM68 55H66.5V55.1816H68H69.5V55H68ZM68 55.1816L68.808 56.4454L136.815 12.9659L136.007 11.7021L135.199 10.4384L67.192 53.9179L68 55.1816ZM136.007 11.7021L137.506 11.746C137.64 7.16909 141.391 3.5 146 3.5V2V0.5C139.763 0.5 134.689 5.46513 134.507 11.6583L136.007 11.7021ZM146 2V3.5H148V2V0.5H146V2ZM146 8V6.5C142.962 6.5 140.5 8.96244 140.5 12H142H143.5C143.5 10.6193 144.619 9.5 146 9.5V8ZM142 12H140.5V176H142H143.5V12H142ZM142 176H140.5C140.5 179.038 142.962 181.5 146 181.5V180V178.5C144.619 178.5 143.5 177.381 143.5 176H142ZM146 180V181.5H148V180V178.5H146V180ZM148 180V181.5C151.038 181.5 153.5 179.038 153.5 176H152H150.5C150.5 177.381 149.381 178.5 148 178.5V180ZM152 176H153.5V12H152H150.5V176H152ZM152 12H153.5C153.5 8.96243 151.038 6.5 148 6.5V8V9.5C149.381 9.5 150.5 10.6193 150.5 12H152ZM148 8V6.5H146V8V9.5H148V8ZM45.4766 170.939L43.9951 171.174C44.5726 174.818 47.7147 177.5 51.4033 177.5V176V174.5C49.1898 174.5 47.3045 172.89 46.9581 170.705L45.4766 170.939ZM51.4033 176V177.5H65.2891V176V174.5H51.4033V176ZM65.2891 176L65.2892 177.5C70.2158 177.5 73.8046 172.83 72.5364 168.069L71.0869 168.455L69.6375 168.841C70.3984 171.698 68.245 174.5 65.289 174.5L65.2891 176ZM71.0869 168.455L72.5364 168.069L61.4934 126.614L60.0439 127L58.5945 127.386L69.6375 168.841L71.0869 168.455ZM60.0439 127V125.5H38.5127V127V128.5H60.0439V127ZM38.5127 127L37.0312 127.235L43.9951 171.174L45.4766 170.939L46.9581 170.705L39.9942 126.765L38.5127 127ZM69.7275 61.1992H68.2275V121.383H69.7275H71.2275V61.1992H69.7275ZM69.7275 121.383L68.868 122.612L134.118 168.237L134.978 167.008L135.837 165.779L70.5871 120.154L69.7275 121.383ZM134.978 167.008H136.478V19.4824H134.978H133.478V167.008H134.978ZM134.978 19.4824L134.17 18.2186L68.9196 59.9354L69.7275 61.1992L70.5355 62.463L135.786 20.7462L134.978 19.4824ZM172.18 141.404L173.639 141.751C173.831 140.945 174.638 140.448 175.444 140.639L175.791 139.18L176.138 137.72C173.72 137.146 171.295 138.64 170.72 141.058L172.18 141.404ZM175.791 139.18L175.444 140.639L199.532 146.361L199.879 144.901L200.226 143.442L176.138 137.72L175.791 139.18ZM199.879 144.901L199.532 146.361C200.338 146.552 200.837 147.361 200.645 148.167L202.104 148.514L203.564 148.86C204.138 146.442 202.643 144.016 200.226 143.442L199.879 144.901ZM202.104 148.514L200.645 148.167C200.454 148.972 199.646 149.47 198.84 149.279L198.493 150.738L198.147 152.198C200.564 152.772 202.989 151.278 203.564 148.861L202.104 148.514ZM198.493 150.738L198.84 149.279L174.751 143.556L174.404 145.016L174.058 146.475L198.146 152.198L198.493 150.738ZM174.404 145.016L174.751 143.556C173.945 143.365 173.448 142.557 173.639 141.751L172.18 141.404L170.72 141.058C170.146 143.475 171.64 145.9 174.058 146.475L174.404 145.016ZM34 61L34 59.5C28.201 59.5 23.5 64.201 23.5 70L25 70L26.5 70C26.5 65.8579 29.8579 62.5 34 62.5L34 61ZM25 70H23.5V112H25H26.5V70H25ZM25 112L23.5 112C23.5 117.799 28.201 122.5 34 122.5L34 121L34 119.5C29.8579 119.5 26.5 116.142 26.5 112L25 112ZM34 121V122.5H62V121V119.5H34V121ZM62 121H63.5V61H62H60.5V121H62ZM62 61V59.5H34V61V62.5H62V61ZM19 74.041L18.8767 72.5461C11.9456 73.1179 6.5 78.9223 6.5 86H8H9.5C9.5 80.4964 13.7353 75.9804 19.1233 75.5359L19 74.041ZM8 86H6.5V95H8H9.5V86H8ZM8 95L6.50012 95.0189L6.50403 95.3285L8.00391 95.3096L9.50379 95.2906L9.49988 94.9811L8 95ZM8.00391 95.3096L6.50439 95.3475C6.67962 102.268 12.0596 107.89 18.8767 108.453L19 106.958L19.1233 105.463C13.8241 105.026 9.63964 100.651 9.50343 95.2716L8.00391 95.3096ZM19 106.958H20.5V74.041H19H17.5V106.958H19ZM202.143 89.459L202.142 90.959C202.971 90.959 203.643 91.6307 203.643 92.459H205.143H206.643C206.643 89.9737 204.628 87.9591 202.143 87.959L202.143 89.459ZM205.143 92.459H203.643C203.643 93.2873 202.971 93.9589 202.142 93.959L202.143 95.459L202.143 96.959C204.628 96.9588 206.643 94.9443 206.643 92.459H205.143ZM202.143 95.459V93.959H176.143V95.459V96.959H202.143V95.459ZM176.143 95.459V93.959C175.314 93.959 174.643 93.2874 174.643 92.459H173.143H171.643C171.643 94.9443 173.657 96.959 176.143 96.959V95.459ZM173.143 92.459H174.643C174.643 91.6306 175.314 90.959 176.143 90.959V89.459V87.959C173.657 87.959 171.643 89.9737 171.643 92.459H173.143ZM176.143 89.459V90.959H202.143V89.459V87.959H176.143V89.459ZM54.1113 78.25L54.1112 79.75C54.8254 79.7501 55.5 80.3678 55.5 81.25H57H58.5C58.5 78.8187 56.5881 76.7502 54.1114 76.75L54.1113 78.25ZM57 81.25H55.5C55.5 82.1322 54.8254 82.7499 54.1112 82.75L54.1113 84.25L54.1114 85.75C56.5881 85.7498 58.5 83.6813 58.5 81.25H57ZM54.1113 84.25V82.75H33.8887V84.25V85.75H54.1113V84.25ZM33.8887 84.25L33.8888 82.75C33.1746 82.7499 32.5 82.1322 32.5 81.25H31H29.5C29.5 83.6813 31.4119 85.7498 33.8886 85.75L33.8887 84.25ZM31 81.25H32.5C32.5 80.3678 33.1746 79.7501 33.8888 79.75L33.8887 78.25L33.8886 76.75C31.4119 76.7502 29.5 78.8187 29.5 81.25H31ZM33.8887 78.25V79.75H54.1113V78.25V76.75H33.8887V78.25ZM54.1113 67.25L54.1112 68.75C54.8254 68.7501 55.5 69.3678 55.5 70.25H57H58.5C58.5 67.8187 56.5881 65.7502 54.1114 65.75L54.1113 67.25ZM57 70.25H55.5C55.5 71.1322 54.8254 71.7499 54.1112 71.75L54.1113 73.25L54.1114 74.75C56.5881 74.7498 58.5 72.6813 58.5 70.25H57ZM54.1113 73.25V71.75H33.8887V73.25V74.75H54.1113V73.25ZM33.8887 73.25L33.8888 71.75C33.1746 71.7499 32.5 71.1322 32.5 70.25H31H29.5C29.5 72.6813 31.4119 74.7498 33.8886 74.75L33.8887 73.25ZM31 70.25H32.5C32.5 69.3678 33.1746 68.7501 33.8888 68.75L33.8887 67.25L33.8886 65.75C31.4119 65.7502 29.5 67.8187 29.5 70.25H31ZM33.8887 67.25V68.75H54.1113V67.25V65.75H33.8887V67.25ZM198.494 37.1797L198.841 38.6391C199.647 38.4476 200.455 38.9453 200.646 39.751L202.105 39.4043L203.565 39.0576C202.99 36.6394 200.565 35.1461 198.148 35.7203L198.494 37.1797ZM202.105 39.4043L200.646 39.751C200.838 40.5568 200.34 41.3647 199.534 41.5563L199.881 43.0156L200.228 44.475C202.645 43.9003 204.139 41.4755 203.565 39.0576L202.105 39.4043ZM199.881 43.0156L199.534 41.5562L175.445 47.2789L175.792 48.7383L176.139 50.1977L200.228 44.475L199.881 43.0156ZM175.792 48.7383L175.445 47.2789C174.639 47.4703 173.832 46.9727 173.64 46.1668L172.181 46.5137L170.721 46.8606C171.296 49.2782 173.721 50.772 176.139 50.1977L175.792 48.7383ZM172.181 46.5137L173.64 46.167C173.448 45.3604 173.947 44.5521 174.752 44.3607L174.405 42.9014L174.059 41.442C171.64 42.0166 170.147 44.443 170.721 46.8604L172.181 46.5137ZM174.405 42.9014L174.752 44.3608L198.841 38.6391L198.494 37.1797L198.147 35.7203L174.059 41.442L174.405 42.9014Z" fill="white"/>
</svg>
