<svg width="143" height="190" viewBox="0 0 143 190" fill="none" xmlns="http://www.w3.org/2000/svg">
<path d="M27.1328 109.384C41.4676 93.1836 59.0453 87.6351 75.3398 88.9756C91.525 90.3072 106.39 98.4273 115.535 109.452C124.326 120.05 130.308 129.532 133.98 140.957C137.64 152.341 138.94 165.453 138.69 183.214C138.668 184.774 137.38 186.021 135.814 185.999C134.248 185.977 132.997 184.694 133.019 183.134C133.264 165.64 131.967 153.225 128.577 142.681C125.201 132.177 119.683 123.326 111.162 113.053C102.995 103.207 89.5405 95.8152 74.873 94.6084C60.3151 93.4108 44.5049 98.2979 31.3877 113.122C10.1662 137.106 8.64316 169.625 10.5508 182.77C10.7747 184.314 9.69955 185.747 8.14941 185.971C6.59927 186.194 5.16077 185.123 4.93652 183.578C2.88726 169.458 4.4316 135.039 27.1328 109.384ZM71.498 4C93.5853 4.00012 111.49 21.8405 111.49 43.8477C111.49 65.8549 93.5854 83.6952 71.498 83.6953C49.4106 83.6953 31.5049 65.855 31.5049 43.8477C31.505 21.8404 49.4107 4.00003 71.498 4ZM71.498 9.65234C52.5436 9.65237 37.1778 24.962 37.1777 43.8477C37.1777 62.7334 52.5436 78.0429 71.498 78.043C90.4524 78.0428 105.818 62.7333 105.818 43.8477C105.818 24.9621 90.4524 9.65246 71.498 9.65234Z" fill="white"/>
<path d="M27.1328 109.384L24.5116 107.064L24.5116 107.064L27.1328 109.384ZM75.3398 88.9756L75.6268 85.4874L75.6268 85.4874L75.3398 88.9756ZM115.535 109.452L118.229 107.218L118.229 107.218L115.535 109.452ZM133.98 140.957L137.313 139.886L137.313 139.886L133.98 140.957ZM138.69 183.214L142.19 183.264L142.19 183.263L138.69 183.214ZM135.814 185.999L135.765 189.499L135.766 189.499L135.814 185.999ZM133.019 183.134L136.518 183.183L136.518 183.183L133.019 183.134ZM128.577 142.681L131.909 141.61L131.909 141.61L128.577 142.681ZM111.162 113.053L113.856 110.818L113.856 110.818L111.162 113.053ZM74.873 94.6084L75.16 91.1202L75.16 91.1202L74.873 94.6084ZM31.3877 113.122L28.7665 110.803L28.7665 110.803L31.3877 113.122ZM10.5508 182.77L14.0146 182.267L14.0145 182.267L10.5508 182.77ZM8.14941 185.971L8.64803 189.435L8.64875 189.435L8.14941 185.971ZM4.93652 183.578L1.47281 184.081L1.47284 184.081L4.93652 183.578ZM71.498 4L71.4981 0.5L71.498 0.5L71.498 4ZM111.49 43.8477L114.99 43.8477L114.99 43.8476L111.49 43.8477ZM71.498 83.6953L71.498 87.1953L71.4981 87.1953L71.498 83.6953ZM31.5049 43.8477L28.0049 43.8476V43.8477H31.5049ZM71.498 9.65234L71.4981 6.15234L71.498 6.15234L71.498 9.65234ZM37.1777 43.8477L33.6777 43.8476V43.8477H37.1777ZM71.498 78.043L71.498 81.543L71.4981 81.543L71.498 78.043ZM105.818 43.8477L109.318 43.8477L109.318 43.8476L105.818 43.8477ZM27.1328 109.384L29.754 111.703C43.3359 96.3537 59.8245 91.211 75.0529 92.4638L75.3398 88.9756L75.6268 85.4874C58.2661 84.0592 39.5993 90.0134 24.5116 107.064L27.1328 109.384ZM75.3398 88.9756L75.0529 92.4638C90.3058 93.7187 104.301 101.391 112.841 111.687L115.535 109.452L118.229 107.218C108.479 95.4636 92.7442 86.8957 75.6268 85.4874L75.3398 88.9756ZM115.535 109.452L112.841 111.687C121.465 122.084 127.16 131.175 130.648 142.028L133.98 140.957L137.313 139.886C133.457 127.89 127.186 118.016 118.229 107.218L115.535 109.452ZM133.98 140.957L130.648 142.028C134.14 152.891 135.438 165.57 135.191 183.165L138.69 183.214L142.19 183.263C142.442 165.337 141.139 151.791 137.313 139.886L133.98 140.957ZM138.69 183.214L135.191 183.164C135.196 182.779 135.51 182.494 135.863 182.499L135.814 185.999L135.766 189.499C139.251 189.547 142.14 186.77 142.19 183.264L138.69 183.214ZM135.814 185.999L135.864 182.499C136.218 182.504 136.524 182.799 136.518 183.183L133.019 183.134L129.519 183.085C129.47 186.59 132.278 189.45 135.765 189.499L135.814 185.999ZM133.019 183.134L136.518 183.183C136.766 165.523 135.466 152.675 131.909 141.61L128.577 142.681L125.245 143.752C128.467 153.775 129.762 165.756 129.519 183.085L133.019 183.134ZM128.577 142.681L131.909 141.61C128.349 130.534 122.544 121.292 113.856 110.818L111.162 113.053L108.468 115.287C116.823 125.359 122.053 133.82 125.245 143.752L128.577 142.681ZM111.162 113.053L113.856 110.818C105.084 100.243 90.7597 92.4036 75.16 91.1202L74.873 94.6084L74.5861 98.0966C88.3212 99.2267 100.906 106.17 108.468 115.287L111.162 113.053ZM74.873 94.6084L75.16 91.1202C59.5355 89.8348 42.6363 95.128 28.7665 110.803L31.3877 113.122L34.0089 115.441C46.3735 101.468 61.0947 96.9867 74.5861 98.0966L74.873 94.6084ZM31.3877 113.122L28.7665 110.803C6.629 135.822 5.09114 169.519 7.08707 183.272L10.5508 182.77L14.0145 182.267C12.1952 169.731 13.7034 138.39 34.0089 115.441L31.3877 113.122ZM10.5508 182.77L7.087 183.272C7.03173 182.891 7.29749 182.557 7.65008 182.507L8.14941 185.971L8.64875 189.435C12.1016 188.937 14.5177 185.738 14.0146 182.267L10.5508 182.77ZM8.14941 185.971L7.6508 182.506C8.00082 182.456 8.3453 182.697 8.40021 183.075L4.93652 183.578L1.47284 184.081C1.97624 187.548 5.19773 189.932 8.64803 189.435L8.14941 185.971ZM4.93652 183.578L8.40024 183.075C6.43905 169.562 7.96956 136.323 29.754 111.703L27.1328 109.384L24.5116 107.064C0.893637 133.756 -0.664535 169.354 1.47281 184.081L4.93652 183.578ZM71.498 4L71.498 7.5C91.6643 7.50011 107.99 23.7854 107.99 43.8477L111.49 43.8477L114.99 43.8476C114.99 19.8955 95.5064 0.500131 71.4981 0.5L71.498 4ZM111.49 43.8477H107.99C107.99 63.91 91.6644 80.1952 71.498 80.1953L71.498 83.6953L71.4981 87.1953C95.5064 87.1952 114.99 67.7998 114.99 43.8477H111.49ZM71.498 83.6953L71.4981 80.1953C51.3316 80.1953 35.0049 63.9099 35.0049 43.8477H31.5049H28.0049C28.0049 67.8 47.4897 87.1953 71.498 87.1953L71.498 83.6953ZM31.5049 43.8477L35.0049 43.8477C35.0049 23.7854 51.3316 7.50003 71.4981 7.5L71.498 4L71.498 0.5C47.4897 0.50003 28.005 19.8954 28.0049 43.8476L31.5049 43.8477ZM71.498 9.65234L71.498 6.15234C50.6227 6.15237 33.6778 23.017 33.6777 43.8476L37.1777 43.8477L40.6777 43.8477C40.6778 26.9071 54.4646 13.1524 71.4981 13.1523L71.498 9.65234ZM37.1777 43.8477H33.6777C33.6777 64.6784 50.6227 81.5429 71.498 81.543L71.498 78.043L71.4981 74.543C54.4645 74.5429 40.6777 60.7883 40.6777 43.8477H37.1777ZM71.498 78.043L71.4981 81.543C92.3733 81.5428 109.318 64.6784 109.318 43.8477H105.818H102.318C102.318 60.7882 88.5315 74.5429 71.498 74.543L71.498 78.043ZM105.818 43.8477L109.318 43.8476C109.318 23.017 92.3733 6.15248 71.4981 6.15234L71.498 9.65234L71.498 13.1523C88.5315 13.1525 102.318 26.9071 102.318 43.8477L105.818 43.8477Z" fill="white"/>
</svg>
