<svg width="174" height="162" viewBox="0 0 174 162" fill="none" xmlns="http://www.w3.org/2000/svg">
<path d="M160 129C167.732 129 174 135.268 174 143V148C174 155.732 167.732 162 160 162H14C6.26802 162 8.05322e-08 155.732 0 148V143C0 135.268 6.26801 129 14 129H160ZM14 137C10.6863 137 8 139.686 8 143V148C8 151.314 10.6863 154 14 154H160C163.314 154 166 151.314 166 148V143C166 139.686 163.314 137 160 137H14ZM160 67C167.732 67 174 73.268 174 81V86C174 93.732 167.732 100 160 100H14C6.26802 100 8.05322e-08 93.732 0 86V81C0 73.268 6.26801 67 14 67H160ZM14 75C10.6863 75 8 77.6863 8 81V86C8 89.3137 10.6863 92 14 92H160C163.314 92 166 89.3137 166 86V81C166 77.6863 163.314 75 160 75H14ZM160 0C167.732 1.80404e-06 174 6.26801 174 14V19C174 26.732 167.732 33 160 33H14C6.26802 33 8.05322e-08 26.732 0 19V14C0 6.26801 6.26801 0 14 0H160ZM14 8C10.6863 8 8 10.6863 8 14V19C8 22.3137 10.6863 25 14 25H160C163.314 25 166 22.3137 166 19V14C166 10.6863 163.314 8 160 8H14Z" fill="white"/>
</svg>
